<?xml version="1.0" encoding="UTF-8"?>
<!--
  FlyttGo infrastructure symbol — construction reference.
  Shows the 24x24 px canvas, 4x4 major grid, 1x1 sub-grid, and the
  canonical F-symbol with control points marked.
  Open in any SVG viewer; do NOT ship this file as the mark.
-->
<svg xmlns="http://www.w3.org/2000/svg" viewBox="0 0 24 24" width="384" height="384"
     shape-rendering="geometricPrecision">
  <defs>
    <linearGradient id="flytt-grad" x1="0" y1="0" x2="1" y2="1">
      <stop offset="0%"   stop-color="#0A3A6B"/>
      <stop offset="100%" stop-color="#1E6FD9"/>
    </linearGradient>
    <pattern id="subgrid" x="0" y="0" width="1" height="1" patternUnits="userSpaceOnUse">
      <path d="M 1 0 L 0 0 0 1" fill="none" stroke="#E2E8F0" stroke-width="0.04"/>
    </pattern>
    <pattern id="majorgrid" x="0" y="0" width="4" height="4" patternUnits="userSpaceOnUse">
      <path d="M 4 0 L 0 0 0 4" fill="none" stroke="#94A3B8" stroke-width="0.08"/>
    </pattern>
  </defs>

  <rect x="0" y="0" width="24" height="24" fill="#FBFCFE"/>
  <rect x="0" y="0" width="24" height="24" fill="url(#subgrid)"/>
  <rect x="0" y="0" width="24" height="24" fill="url(#majorgrid)"/>

  <!-- Built-in safe area inside the viewBox: x in [4,22], y in [2,22] -->
  <rect x="4" y="2" width="18" height="20" fill="none"
        stroke="#94A3B8" stroke-width="0.08" stroke-dasharray="0.4 0.3"/>

  <!-- Canonical F-symbol -->
  <path d="M 4 2 H 22 V 7 H 9 V 10 H 18 V 15 H 9 V 22 H 4 Z"
        fill="url(#flytt-grad)"/>

  <!-- Inflection points — visible for construction reference -->
  <g fill="#0A1F3D">
    <circle cx="4"  cy="2"  r="0.22"/>
    <circle cx="22" cy="2"  r="0.22"/>
    <circle cx="22" cy="7"  r="0.22"/>
    <circle cx="9"  cy="7"  r="0.22"/>
    <circle cx="9"  cy="10" r="0.22"/>
    <circle cx="18" cy="10" r="0.22"/>
    <circle cx="18" cy="15" r="0.22"/>
    <circle cx="9"  cy="15" r="0.22"/>
    <circle cx="9"  cy="22" r="0.22"/>
    <circle cx="4"  cy="22" r="0.22"/>
  </g>
</svg>
